<?xml version="1.0" encoding="iso-8859-1"?>
<!-- Generator: Adobe Illustrator 19.0.0, SVG Export Plug-In . SVG Version: 6.00 Build 0)  -->
<svg version="1.1" id="Capa_1" xmlns="http://www.w3.org/2000/svg" xmlns:xlink="http://www.w3.org/1999/xlink" x="0px" y="0px"
	 viewBox="0 0 414.747 414.747" style="enable-background:new 0 0 414.747 414.747;" xml:space="preserve">
<g>
	<g>
		<path d="M379.703,224.845c46.396-46.381,46.771-121.479,0.84-168.32l-1.68-1.68c-46.877-45.844-121.903-45.47-168.32,0.84l-3,3
			l-3.24-3.24c-46.69-46.756-122.444-46.81-169.2-0.12c-46.756,46.69-46.81,122.444-0.12,169.2l168,168
			c0.819,0.856,1.906,1.406,3.08,1.56c0.604,0.213,1.24,0.322,1.88,0.32c1.524-0.026,2.97-0.677,4-1.8l39.76-39.76
			c30.657,25.855,75.485,25.855,106.143,0c34.755-29.31,39.168-81.245,9.857-116L379.703,224.845z M207.463,381.325l-164.44-164.52
			c-20.362-20.346-31.795-47.955-31.779-76.739C11.276,80.198,59.835,31.692,119.703,31.725v0
			c28.784-0.102,56.412,11.321,76.72,31.72l7.04,7.16c0.027,0.027,0.054,0.054,0.081,0.081c2.209,2.164,5.755,2.128,7.919-0.081
			l7-6.96c42.163-40.746,109.078-40.598,151.06,0.335c42.881,41.809,43.749,110.464,1.94,153.345l-12,12
			c-30.657-25.855-75.485-25.855-106.143,0c-34.755,29.31-39.168,81.245-9.857,116L207.463,381.325z M358.983,337.405
			c-25.825,29.625-70.775,32.705-100.4,6.88c-2.173-1.901-4.23-3.932-6.16-6.08c-11.806-13.086-18.332-30.09-18.314-47.714
			c0.041-39.278,31.915-71.087,71.194-71.046c17.582-0.007,34.542,6.506,47.6,18.28c2.147,1.931,4.177,3.988,6.08,6.16
			C382.343,270.682,382.343,310.608,358.983,337.405z"/>
	</g>
</g>
<g>
	<g>
		<path d="M354.942,276.245h-35.4v-35.4c0-7.931-6.429-14.36-14.36-14.36c-7.931,0-14.36,6.429-14.36,14.36v35.4h-35.36
			c-7.931,0-14.36,6.429-14.36,14.36c0,7.931,6.429,14.36,14.36,14.36h35.48v35.4c0.022,7.922,6.438,14.338,14.36,14.36
			c7.937-0.022,14.36-6.463,14.36-14.4v-35.36h35.28c7.931,0,14.36-6.429,14.36-14.36
			C369.302,282.674,362.873,276.245,354.942,276.245z M355.063,293.845h-40.92c-3.093,0-5.6,2.507-5.6,5.6v40.92
			c0,0.003,0,0.006,0,0.009c-0.002,1.767-1.437,3.198-3.204,3.195c-1.767-0.002-3.198-1.437-3.195-3.204v-40.92
			c0-3.093-2.507-5.6-5.6-5.6h-41.08c-0.003,0-0.006,0-0.009,0c-1.767-0.002-3.198-1.437-3.195-3.204
			c0.002-1.767,1.437-3.198,3.204-3.195l41.04-0.04c3.093,0,5.6-2.507,5.6-5.6v-40.96c0.002-1.764,1.432-3.193,3.195-3.195
			c1.767-0.002,3.202,1.428,3.204,3.195v41c0,3.093,2.507,5.6,5.6,5.6h40.96c1.764,0.002,3.193,1.432,3.195,3.195
			C358.261,292.407,356.83,293.842,355.063,293.845z"/>
	</g>
</g>
<g>
</g>
<g>
</g>
<g>
</g>
<g>
</g>
<g>
</g>
<g>
</g>
<g>
</g>
<g>
</g>
<g>
</g>
<g>
</g>
<g>
</g>
<g>
</g>
<g>
</g>
<g>
</g>
<g>
</g>
</svg>
